<svg viewBox="0 0 37 32" xmlns="http://www.w3.org/2000/svg">
  <path d="M 36.421875 21.916666666666664  C 36.80729166666667 22.30555555555555  37 22.77777777777778  37 23.333333333333336  L 37 30  C 37 30.555555555555557  36.80729166666667 31.027777777777775  36.421875 31.416666666666668  C 36.036458333333336 31.805555555555557  35.56845238095238 32  35.01785714285714 32  L 28.41071428571429 32  C 27.86011904761905 32  27.3921130952381 31.805555555555557  27.00669642857143 31.416666666666668  C 26.621279761904763 31.027777777777775  26.42857142857143 30.555555555555557  26.42857142857143 30  L 26.42857142857143 23.333333333333336  C 26.42857142857143 22.77777777777778  26.621279761904763 22.30555555555555  27.00669642857143 21.916666666666664  C 27.3921130952381 21.52777777777778  27.86011904761905 21.333333333333336  28.41071428571429 21.333333333333336  L 30.392857142857142 21.333333333333336  L 30.392857142857142 17  L 19.82142857142857 17  L 19.82142857142857 21.333333333333336  L 21.80357142857143 21.333333333333336  C 22.354166666666668 21.333333333333336  22.82217261904762 21.52777777777778  23.20758928571429 21.916666666666664  C 23.593005952380953 22.30555555555555  23.78571428571429 22.77777777777778  23.78571428571429 23.333333333333336  L 23.78571428571429 30  C 23.78571428571429 30.555555555555557  23.593005952380953 31.027777777777775  23.20758928571429 31.416666666666668  C 22.82217261904762 31.805555555555557  22.354166666666668 32  21.80357142857143 32  L 15.196428571428571 32  C 14.645833333333334 32  14.177827380952381 31.805555555555557  13.792410714285715 31.416666666666668  C 13.40699404761905 31.027777777777775  13.214285714285715 30.555555555555557  13.214285714285715 30  L 13.214285714285715 23.333333333333336  C 13.214285714285715 22.77777777777778  13.40699404761905 22.30555555555555  13.792410714285715 21.916666666666664  C 14.177827380952381 21.52777777777778  14.645833333333334 21.333333333333336  15.196428571428571 21.333333333333336  L 17.17857142857143 21.333333333333336  L 17.17857142857143 17  L 6.607142857142858 17  L 6.607142857142858 21.333333333333336  L 8.589285714285715 21.333333333333336  C 9.139880952380954 21.333333333333336  9.607886904761905 21.52777777777778  9.993303571428571 21.916666666666664  C 10.378720238095239 22.30555555555555  10.571428571428571 22.77777777777778  10.571428571428571 23.333333333333336  L 10.571428571428571 30  C 10.571428571428571 30.555555555555557  10.378720238095239 31.027777777777775  9.993303571428571 31.416666666666668  C 9.607886904761905 31.805555555555557  9.139880952380954 32  8.589285714285715 32  L 1.982142857142857 32  C 1.4315476190476193 32  0.9635416666666667 31.805555555555557  0.578125 31.416666666666668  C 0.19270833333333331 31.027777777777775  0 30.555555555555557  0 30  L 0 23.333333333333336  C 0 22.77777777777778  0.19270833333333331 22.30555555555555  0.578125 21.916666666666664  C 0.9635416666666667 21.52777777777778  1.4315476190476193 21.333333333333336  1.982142857142857 21.333333333333336  L 3.964285714285714 21.333333333333336  L 3.964285714285714 17.333333333333336  C 3.964285714285714 16.611111111111107  4.2258184523809526 15.98611111111111  4.748883928571428 15.458333333333332  C 5.271949404761904 14.930555555555554  5.891369047619048 14.666666666666668  6.607142857142858 15  L 17.17857142857143 15  L 17.17857142857143 10.666666666666668  L 15.196428571428571 10.666666666666668  C 14.645833333333334 10.666666666666668  14.177827380952381 10.472222222222218  13.792410714285715 10.083333333333332  C 13.40699404761905 9.694444444444443  13.214285714285715 9.222222222222218  13.214285714285715 8.666666666666668  L 13.214285714285715 2  C 13.214285714285715 1.4444444444444429  13.40699404761905 0.9722222222222179  13.792410714285715 0.5833333333333321  C 14.177827380952381 0.19444444444444287  14.645833333333334 0  15.196428571428571 0  L 21.80357142857143 0  C 22.354166666666668 0  22.82217261904762 0.19444444444444287  23.20758928571429 0.5833333333333321  C 23.593005952380953 0.9722222222222179  23.78571428571429 1.4444444444444429  23.78571428571429 2  L 23.78571428571429 8.666666666666668  C 23.78571428571429 9.222222222222218  23.593005952380953 9.694444444444443  23.20758928571429 10.083333333333332  C 22.82217261904762 10.472222222222218  22.354166666666668 10.666666666666668  21.80357142857143 10.666666666666668  L 19.82142857142857 10.666666666666668  L 19.82142857142857 15  L 30.392857142857142 15  C 31.108630952380953 14.666666666666668  31.7280505952381 14.930555555555554  32.25111607142857 15.458333333333332  C 32.77418154761905 15.98611111111111  33.035714285714285 16.611111111111107  33.035714285714285 17.333333333333336  L 33.035714285714285 21.333333333333336  L 35.01785714285714 21.333333333333336  C 35.56845238095238 21.333333333333336  36.036458333333336 21.52777777777778  36.421875 21.916666666666664  Z" fill="rgba(228, 170, 129, 1)" fill-rule="nonzero"/>
</svg>