<svg viewBox="0 0 110 82" xmlns="http://www.w3.org/2000/svg">
  <path d="M 107.46274614156465 44.9296875  C 108.48758204718823 45.42826704545454  109 46.252840909090914  109 47.403409090909086  C 109 48.59232954545454  108.40056767784283 49.85795454545454  107.20170303352847 51.200284090909086  L 87.71048430015966 73.9815340909091  C 86.04754301933653 75.9375  83.71749157353202 77.59623579545453  80.72032996274615 78.95774147727272  C 77.72316835196027 80.31924715909092  74.94837679616818 81  72.39595529536987 81  L 9.281532730175625 81  C 7.966648926734078 81  6.796789072201527 80.75071022727273  5.771953166577966 80.25213068181817  C 4.7471172609544094 79.75355113636363  4.23469930814263 78.92897727272728  4.23469930814263 77.7784090909091  C 4.23469930814263 76.58948863636363  4.834131630299805 75.32386363636364  6.032996274614156 73.9815340909091  L 25.52421500798297 51.200284090909086  C 27.187156288806108 49.24431818181818  29.517207734610608 47.58558238636363  32.51436934539649 46.22407670454545  C 35.51153095618237 44.86257102272726  38.286322511974454 44.18181818181818  40.83874401277275 44  L 103.953166577967 44  C 105.26805038140856 44.18181818181818  106.43791023594112 44.431107954545446  107.46274614156465 44.9296875  Z M 85.27408195848857 18.524147727272723  C 87.82650345928685 21.055397727272723  89.102714209686 24.085227272727266  89.102714209686 27.613636363636367  L 89.102714209686 37  L 40.83874401277275 37  C 37.2034770267873 36.81818181818182  33.39418130211106 37.72904829545455  29.41085683874401 39.55078125  C 25.427532375376973 41.37251420454545  22.256342025900302 43.6640625  19.897285790313997 46.42542613636364  L 0.34805747738158593 69.20667613636364  L 0.05800957956359765 69.5518465909091  C 0.05800957956359765 69.3984375  0.04834131630299805 69.15873579545455  0.029004789781798827 68.83274147727273  C 0.00966826326059961 68.5067471590909  0 68.26704545454547  0 68.11363636363636  L 0 12.886363636363633  C 0 9.357954545454533  1.2762107503991484 6.328125  3.8286322511974458 3.796875  C 6.3810537519957435 1.265625  9.43622494234522 0  12.994145822245875 0  L 31.557211282597123 0  C 35.11513216249778 0  38.170303352847256 1.265625  40.72272485364556 3.796875  C 43.275146354443855 6.328125  44.551357104843 9.357954545454533  44.551357104843 12.886363636363633  L 44.551357104843 15  L 76.10856838744013 15  C 79.6664892673408 14.727272727272723  82.72166045769026 15.992897727272723  85.27408195848857 18.524147727272723  Z" fill="rgba(255, 216, 169, 1)" fill-rule="nonzero"/>
</svg>