<svg viewBox="0 0 21 32" xmlns="http://www.w3.org/2000/svg">
  <path d="M 14.2119140625 14.4375  C 15.2373046875 13.395833333333332  15.75 12.13888888888889  15.75 10.666666666666668  C 15.75 9.194444444444443  15.2373046875 7.9375  14.2119140625 6.895833333333332  C 13.1865234375 5.854166666666668  11.949218750000002 5.333333333333332  10.5 5.333333333333332  C 9.05078125 5.333333333333332  7.8134765625 5.854166666666668  6.7880859375 6.895833333333332  C 5.7626953125 7.9375  5.25 9.194444444444443  5.25 10.666666666666668  C 5.25 12.13888888888889  5.7626953125 13.395833333333332  6.7880859375 14.4375  C 7.8134765625 15.479166666666668  9.05078125 16  10.5 16  C 11.949218750000002 16  13.1865234375 15.479166666666668  14.2119140625 14.4375  Z M 17.923828125 3.125  C 19.974609375 5.208333333333332  21 7.722222222222218  21 10.666666666666668  C 21 12.180555555555554  20.7744140625 13.42361111111111  20.3232421875 14.395833333333332  L 12.8583984375 30.520833333333332  C 12.6396484375 30.979166666666668  12.31494140625 31.340277777777775  11.88427734375 31.604166666666668  C 11.45361328125 31.868055555555557  10.9921875 32  10.5 32  C 10.0078125 32  9.54638671875 31.868055555555557  9.11572265625 31.604166666666668  C 8.68505859375 31.340277777777775  8.3671875 30.979166666666668  8.162109375 30.520833333333332  L 0.6767578125 14.395833333333332  C 0.2255859375 13.42361111111111  0 12.180555555555554  0 10.666666666666668  C 0 7.722222222222218  1.025390625 5.208333333333332  3.076171875 3.125  C 5.126953125000001 1.0416666666666679  7.6015625 0  10.5 0  C 13.3984375 0  15.873046875 1.0416666666666679  17.923828125 3.125  Z" fill="rgba(228, 170, 129, 1)" fill-rule="nonzero"/>
</svg>