<svg viewBox="0 0 30 32" xmlns="http://www.w3.org/2000/svg">
  <path d="M 23.653846153846153 16.80357142857143  C 23.653846153846153 16.958333333333332  23.599759615384617 17.095238095238095  23.491586538461537 17.214285714285715  L 14.260817307692308 26.357142857142858  C 14.140625 26.464285714285715  14.002403846153848 26.517857142857142  13.846153846153847 26.517857142857142  C 13.689903846153847 26.517857142857142  13.551682692307693 26.464285714285715  13.431490384615385 26.357142857142858  L 8.239182692307692 21.214285714285715  C 8.131009615384615 21.095238095238095  8.076923076923077 20.95833333333333  8.076923076923077 20.80357142857143  C 8.076923076923077 20.648809523809526  8.131009615384615 20.517857142857142  8.239182692307692 20.410714285714285  L 9.068509615384615 19.589285714285715  C 9.176682692307692 19.482142857142858  9.308894230769232 19.42857142857143  9.465144230769232 19.42857142857143  C 9.621394230769232 19.42857142857143  9.759615384615385 19.482142857142858  9.879807692307692 19.589285714285715  L 13.846153846153847 23.517857142857142  L 21.850961538461537 15.589285714285715  C 21.971153846153847 15.482142857142858  22.109375000000004 15.428571428571427  22.265625 15.428571428571427  C 22.421875 15.428571428571427  22.554086538461537 15.482142857142858  22.662259615384617 15.589285714285715  L 23.491586538461537 16.410714285714285  C 23.599759615384617 16.517857142857142  23.653846153846153 16.648809523809522  23.653846153846153 16.80357142857143  Z M 2.307692307692308 12  L 2.307692307692308 29.714285714285715  L 27.692307692307693 29.714285714285715  L 27.692307692307693 12  L 2.307692307692308 12  Z M 9.068509615384615 8.410714285714285  C 9.176682692307692 8.303571428571427  9.230769230769232 8.166666666666664  9.230769230769232 8  L 9.230769230769232 2.8571428571428577  C 9.230769230769232 2.6904761904761862  9.176682692307692 2.553571428571427  9.068509615384615 2.446428571428573  C 8.960336538461538 2.3392857142857153  8.822115384615385 2.2857142857142847  8.653846153846153 2.2857142857142847  L 7.5 2.2857142857142847  C 7.331730769230771 2.2857142857142847  7.193509615384617 2.3392857142857153  7.085336538461538 2.446428571428573  C 6.977163461538462 2.553571428571427  6.923076923076923 2.6904761904761862  6.923076923076923 2.8571428571428577  L 6.923076923076923 8  C 6.923076923076923 8.166666666666664  6.977163461538462 8.303571428571427  7.085336538461538 8.410714285714285  C 7.193509615384617 8.517857142857142  7.331730769230771 8.571428571428573  7.5 8.571428571428573  L 8.653846153846153 8.571428571428573  C 8.822115384615385 8.571428571428573  8.960336538461538 8.517857142857142  9.068509615384615 8.410714285714285  Z M 22.914663461538463 8.410714285714285  C 23.022836538461537 8.303571428571427  23.076923076923077 8.166666666666664  23.076923076923077 8  L 23.076923076923077 2.8571428571428577  C 23.076923076923077 2.6904761904761862  23.022836538461537 2.553571428571427  22.914663461538463 2.446428571428573  C 22.806490384615383 2.3392857142857153  22.668269230769234 2.2857142857142847  22.5 2.2857142857142847  L 21.346153846153847 2.2857142857142847  C 21.177884615384617 2.2857142857142847  21.039663461538463 2.3392857142857153  20.931490384615383 2.446428571428573  C 20.823317307692307 2.553571428571427  20.76923076923077 2.6904761904761862  20.76923076923077 2.8571428571428577  L 20.76923076923077 8  C 20.76923076923077 8.166666666666664  20.823317307692307 8.303571428571427  20.931490384615383 8.410714285714285  C 21.039663461538463 8.517857142857142  21.177884615384617 8.571428571428573  21.346153846153847 8.571428571428573  L 22.5 8.571428571428573  C 22.668269230769234 8.571428571428573  22.806490384615383 8.517857142857142  22.914663461538463 8.410714285714285  Z M 29.314903846153847 5.25  C 29.771634615384617 5.7023809523809526  30 6.238095238095237  30 6.857142857142858  L 30 29.714285714285715  C 30 30.333333333333336  29.771634615384617 30.86904761904762  29.314903846153847 31.321428571428573  C 28.85817307692308 31.773809523809522  28.317307692307693 32  27.692307692307693 32  L 2.307692307692308 32  C 1.682692307692308 32  1.1418269230769231 31.773809523809522  0.6850961538461539 31.321428571428573  C 0.2283653846153846 30.86904761904762  0 30.333333333333336  0 29.714285714285715  L 0 6.857142857142858  C 0 6.238095238095237  0.2283653846153846 5.7023809523809526  0.6850961538461539 5.25  C 1.1418269230769231 4.797619047619044  1.682692307692308 4.571428571428573  2.307692307692308 4.571428571428573  L 4.615384615384616 4.571428571428573  L 4.615384615384616 2.8571428571428577  C 4.615384615384616 2.071428571428573  4.897836538461538 1.398809523809522  5.462740384615384 0.8392857142857153  C 6.027644230769232 0.2797619047619051  6.706730769230769 0  7.5 0  L 8.653846153846153 0  C 9.447115384615385 0  10.126201923076925 0.2797619047619051  10.691105769230768 0.8392857142857153  C 11.256009615384617 1.398809523809522  11.538461538461538 2.071428571428573  11.538461538461538 2.8571428571428577  L 11.538461538461538 4.571428571428573  L 18.461538461538463 4.571428571428573  L 18.461538461538463 2.8571428571428577  C 18.461538461538463 2.071428571428573  18.743990384615387 1.398809523809522  19.30889423076923 0.8392857142857153  C 19.87379807692308 0.2797619047619051  20.552884615384617 0  21.346153846153847 0  L 22.5 0  C 23.29326923076923 0  23.97235576923077 0.2797619047619051  24.537259615384617 0.8392857142857153  C 25.102163461538463 1.398809523809522  25.384615384615383 2.071428571428573  25.384615384615383 2.8571428571428577  L 25.384615384615383 4.571428571428573  L 27.692307692307693 4.571428571428573  C 28.317307692307693 4.571428571428573  28.85817307692308 4.797619047619044  29.314903846153847 5.25  Z" fill="rgba(228, 170, 129, 1)" fill-rule="nonzero"/>
</svg>