<svg viewBox="0 0 90 90" xmlns="http://www.w3.org/2000/svg">
  <path d="M 87.75181260457335 0  C 88.42851831195391 0  89.0375534485964 0.1841517857142938  89.57891801450083 0.5524553571428614  C 90.69548243167877 1.3560267857142871  91.15225878416065 2.427455357142855  90.94924707194646 3.7667410714285743  L 77.95649749023983 80.90959821428571  C 77.78732106339469 81.88058035714286  77.24595649749024 82.63392857142857  76.33240379252649 83.16964285714286  C 75.8587097973601 83.4375  75.33426287414018 83.57142857142857  74.75906302286671 83.57142857142857  C 74.3868748838074 83.57142857142857  73.98085145937907 83.48772321428571  73.5409927495817 83.3203125  L 50.54991634132738 74.02901785714285  L 38.26770775237033 88.84486607142857  C 37.65867261572783 89.61495535714286  36.82970812418666 90  35.78081427774679 90  C 35.340955567949436 90  34.96876742889013 89.93303571428572  34.66424986056888 89.79910714285714  C 34.021379438557354 89.56473214285714  33.505391336679686 89.17131696428571  33.116285554935864 88.61886160714286  C 32.72717977319204 88.06640625  32.53262688232013 87.45535714285714  33 86.78571428571429  L 33 69.2578125  L 76.38315672058003 16.071428571428573  L 22.128276631344118 62.527901785714285  L 2.0808700501952035 54.39174107142858  C 0.8289644915411787 53.92299107142856  0.15225878416062466 53.00223214285714  0.050752928053541556 51.629464285714285  C -0.016917642684513855 50.29017857142857  0.5244469232199293 49.30245535714286  1.6748466257668713 48.666294642857146  L 86.12771890686001 0.4520089285714257  C 86.63524818739543 0.15066964285713857  87.17661275329988 0  87.75181260457335 0  Z" fill="rgba(255, 216, 169, 1)" fill-rule="nonzero"/>
</svg>